<svg xmlns="http://www.w3.org/2000/svg" xmlns:xlink="http://www.w3.org/1999/xlink" width="497.819" height="333.269" viewBox="0 0 497.819 333.269"><defs><style>.a{fill:url(#a);}.b,.c,.g{fill:#b4016c;}.b{opacity:0.3;}.d{opacity:0.2;}.e{fill:#3f3d56;}.f{opacity:0.03;}.g,.j,.n{opacity:0.1;}.h{fill:#2f2e41;}.i{fill:#fff;opacity:0.6;}.k,.l{fill:none;stroke-miterlimit:10;stroke-width:4px;}.k{stroke:#2f2e41;}.l{stroke:#3f3d56;}.m{fill:url(#b);}.o{fill:#fbbebe;}.p{fill:#ff6f61;}</style><linearGradient id="a" x1="0.5" y1="1" x2="0.5" gradientUnits="objectBoundingBox"><stop offset="0" stop-color="#b4016c"/><stop offset="1" stop-color="#3f3d56"/></linearGradient><linearGradient id="b" x1="-0.358" y1="1" x2="-0.358" gradientUnits="objectBoundingBox"><stop offset="0" stop-color="gray" stop-opacity="0.251"/><stop offset="0.54" stop-color="gray" stop-opacity="0.122"/><stop offset="1" stop-color="gray" stop-opacity="0.102"/></linearGradient></defs><g transform="translate(0.001 0.005)"><path class="a" d="M482.15,228.663q-2.933-4.115-6.231-7.962a116.744,116.744,0,0,0-40.576-30.493,114.589,114.589,0,0,0-13.1-5q-4.651-1.458-9.462-2.514l-6.051-1.186A116.681,116.681,0,0,0,319.1,202.042q-4.513-.549-9.135-.733c-.117-.323-.239-.645-.365-.972q-1.542-4.081-3.306-8.046a156.877,156.877,0,0,0-26.148-40.6c-.494-.553-.989-1.106-1.492-1.651a158.4,158.4,0,0,0-23.7-21.191A156.377,156.377,0,0,0,163.081,99h-.222q-3.671,0-7.3.172l-9.332.7c-.767.08-1.534.163-2.3.26h0L134.5,101.56q-3.746.679-7.43,1.546a157.219,157.219,0,0,0-85.119,52.82q-3.973,4.79-7.543,9.9c-1.136,1.617-2.242,3.248-3.31,4.907-.515.8-1.022,1.592-1.525,2.4q-2.489,3.985-4.718,8.125-2.376,4.387-4.475,8.934a.6.6,0,0,0-.034.075A155.271,155.271,0,0,0,9.985,220.643h0q-.951,4.123-1.676,8.322-.285,1.609-.528,3.227l-.05.36c-.419,2.933-.792,5.867-1.064,8.854l-.365.034c.029.088.059.176.08.268a2.7,2.7,0,0,0,.243.13c-.034.381-.063.763-.092,1.14a3.608,3.608,0,0,1-.08,1.01Q6,249.854,6,255.863A156.059,156.059,0,0,0,23.826,328.55l.163.31A157.492,157.492,0,0,0,74.123,385.2a155.884,155.884,0,0,0,55.368,23.956l3.465.708q7.182,1.391,14.6,2.1,7.543.729,15.307.733a157.681,157.681,0,0,0,21.509-1.467H368.908l1.5.23A116.422,116.422,0,0,0,482.15,228.642Z" transform="translate(-6 -79.446)"/><path class="b" d="M420.429,335.546h0c-.021-1.37-.067-2.724-.142-4.081q-.134-2.556-.373-5.091a114.892,114.892,0,0,0-2.275-14.247c-.046-.21-.1-.419-.147-.633q-1.257-5.427-3-10.656-1.182-3.512-2.577-6.893h0q-.494-1.219-1.022-2.409a113.755,113.755,0,0,0-5.447-10.9h0l-.264-.461c-.608-1.056-1.257-2.1-1.877-3.147h0l-.256-.419c-.122-.2-.243-.365-.348-.553v-.025q-1.232-1.957-2.539-3.851a115.761,115.761,0,0,0-8.926-11.356h0a116.432,116.432,0,0,0-15.542-14.49h0c-1.4-1.069-2.808-2.116-4.253-3.13h0a114.566,114.566,0,0,0-52.288-20.064q-4.513-.549-9.135-.733c-.758-.034-1.517-.055-2.275-.067-.838-.025-1.676-.029-2.514-.029a116.826,116.826,0,0,0-14.721.931,114.848,114.848,0,0,0-23.906,5.707,115.328,115.328,0,0,0-99.685-57.366,113.636,113.636,0,0,0-12.3.658c-.453.038-.905.092-1.358.147a114.744,114.744,0,0,0-16.414,3.164c-1.6-2.632-3.306-5.209-5.112-7.7s-3.641-4.857-5.6-7.161q-2.514-2.933-5.188-5.707a2.33,2.33,0,0,0-.176-.176,114.723,114.723,0,0,0-8.775-8.113c-1.634-1.366-3.306-2.69-5.028-3.956q-3.231-2.414-6.633-4.584-2.389-1.534-4.852-2.933a157.655,157.655,0,0,0-53.515,41.749q-3.973,4.79-7.543,9.9c-1.136,1.617-2.242,3.248-3.31,4.907-.515.8-1.022,1.592-1.525,2.4q-2.489,3.985-4.718,8.125-2.376,4.387-4.475,8.934a.6.6,0,0,0-.034.075A155.271,155.271,0,0,0,9.985,241.685h0q-.951,4.123-1.676,8.322-.285,1.609-.528,3.227l-.05.36c-.419,2.933-.792,5.867-1.064,8.854l-.365.034c.029.088.059.176.08.268a2.7,2.7,0,0,0,.243.13c-.034.381-.063.763-.092,1.14a3.608,3.608,0,0,1-.08,1.01Q6,270.9,6,276.905a156.059,156.059,0,0,0,17.826,72.687c.138.021.281.042.419.054h0a115.75,115.75,0,0,0,44.087-3.126q1.961,3.235,4.132,6.327,1.6,2.3,3.319,4.5a115.8,115.8,0,0,0,34.843,30.041c.591.335,1.19.658,1.789.981a113.452,113.452,0,0,0,16.783,7.35q3.352,1.169,6.835,2.133c.13.034.26.075.39.1a114.352,114.352,0,0,0,22.264,3.771q4.073.3,8.222.3a116.481,116.481,0,0,0,18.577-1.491,113.818,113.818,0,0,0,11.393-2.46h0q4.4-1.178,8.653-2.694,1.194,2.049,2.468,4.04a113.752,113.752,0,0,0,9.617,12.973q2.636,3.092,5.494,5.988a115.653,115.653,0,0,0,16.531,13.912H368.908l1.5.23A116.313,116.313,0,0,0,387.283,418.4a114.943,114.943,0,0,0,31.47-61.31q.574-3.352.951-6.73a116.268,116.268,0,0,0,.725-12.835Z" transform="translate(-6 -100.489)"/><path class="c" d="M794.973,464.989a116.615,116.615,0,0,1-58.544,101.043H509.536q-.419-3-.758-5.988c-.18-1.492-.348-2.979-.507-4.471-.277-2.59-.52-5.2-.708-7.832-1.006-14.088-.419-28.495,5.2-41.1a49.73,49.73,0,0,1,2.38-4.718,52.25,52.25,0,0,1,4.379-6.441,58.542,58.542,0,0,1,4.609-5.125,69.864,69.864,0,0,1,7-6.034c1.177-.893,2.389-1.76,3.62-2.594l.226-.151a120.7,120.7,0,0,1,20.26-10.694l1.45-.6.377-.155c.683-.285,1.366-.557,2.049-.838l.272-.109q5.535-2.2,11.151-4.09,9.537-3.214,19.347-5.527,2.439-.578,4.894-1.094,2.376-.507,4.765-.955,5.284-1.006,10.61-1.743c.369-.05.733-.1,1.1-.142l2.322-.306.419-.05c.666-.084,1.337-.159,2.007-.235,2.736-.314,5.477-.582,8.217-.838h0a.911.911,0,0,0,.318-.038h.025q4.354-.369,8.716-.687l2.037-.151,1.676-.117,9.956-.7c2.69-.205,5.376-.419,8.062-.658.457-.038.909-.075,1.366-.121l.926-.088a1.709,1.709,0,0,0,.251-.025h.117l1.555-.155a.7.7,0,0,1,.092,0h0c.448-.042.888-.088,1.333-.138,3.562-.369,7.124-.8,10.66-1.337l1.081-.159a152.484,152.484,0,0,0,18.174-3.931q2.045-.582,4.065-1.232,2.317-.75,4.609-1.592l.645-.239q1.6-.629,3.168-1.257h0c1.525-.628,3.034-1.3,4.517-2.011l.193-.088q2.648-1.257,5.2-2.7c.788-.444,1.571-.905,2.342-1.379a74.207,74.207,0,0,0,11-8.1c.26-.235.516-.465.767-.7l.084-.075a114.467,114.467,0,0,0,9.395-10.057c4.165-4.894,8.2-9.927,12.793-14.407q2.011-1.961,4.19-3.771c1.676-1.383,3.386-2.686,5.163-3.91l.264-.184a75.955,75.955,0,0,1,8.113-4.848q3.289,3.843,6.231,7.962A115.839,115.839,0,0,1,794.973,464.989Z" transform="translate(-297.155 -248.122)"/><path class="d" d="M794.973,464.989a116.615,116.615,0,0,1-58.544,101.043H509.536q-.419-3-.758-5.988c-.18-1.492-.348-2.979-.507-4.471-.277-2.59-.52-5.2-.708-7.832-1.006-14.088-.419-28.495,5.2-41.1a49.73,49.73,0,0,1,2.38-4.718,52.25,52.25,0,0,1,4.379-6.441,58.542,58.542,0,0,1,4.609-5.125,69.864,69.864,0,0,1,7-6.034c1.177-.893,2.389-1.76,3.62-2.594l.226-.151a120.7,120.7,0,0,1,20.26-10.694l1.45-.6.377-.155c.683-.285,1.366-.557,2.049-.838l.272-.109q5.535-2.2,11.151-4.09,9.537-3.214,19.347-5.527,2.439-.578,4.894-1.094,2.376-.507,4.765-.955,5.284-1.006,10.61-1.743c.369-.05.733-.1,1.1-.142l2.322-.306.419-.05c.666-.084,1.337-.159,2.007-.235,2.736-.314,5.477-.582,8.217-.838h0a.911.911,0,0,0,.318-.038h.025q4.354-.369,8.716-.687l2.037-.151,1.676-.117,9.956-.7c2.69-.205,5.376-.419,8.062-.658.457-.038.909-.075,1.366-.121l.926-.088a1.709,1.709,0,0,0,.251-.025h.117l1.555-.155a.7.7,0,0,1,.092,0h0c.448-.042.888-.088,1.333-.138,3.562-.369,7.124-.8,10.66-1.337l1.081-.159a152.484,152.484,0,0,0,18.174-3.931q2.045-.582,4.065-1.232,2.317-.75,4.609-1.592l.645-.239q1.6-.629,3.168-1.257h0c1.525-.628,3.034-1.3,4.517-2.011l.193-.088q2.648-1.257,5.2-2.7c.788-.444,1.571-.905,2.342-1.379a74.207,74.207,0,0,0,11-8.1c.26-.235.516-.465.767-.7l.084-.075a114.467,114.467,0,0,0,9.395-10.057c4.165-4.894,8.2-9.927,12.793-14.407q2.011-1.961,4.19-3.771c1.676-1.383,3.386-2.686,5.163-3.91l.264-.184a75.955,75.955,0,0,1,8.113-4.848q3.289,3.843,6.231,7.962A115.839,115.839,0,0,1,794.973,464.989Z" transform="translate(-297.155 -248.122)"/><ellipse class="e" cx="2.267" cy="2.971" rx="2.267" ry="2.971" transform="translate(80.405 208.549)"/><ellipse class="e" cx="2.267" cy="2.971" rx="2.267" ry="2.971" transform="translate(80.405 204.92)"/><ellipse class="e" cx="2.267" cy="2.971" rx="2.267" ry="2.971" transform="translate(80.405 201.291)"/><ellipse class="e" cx="2.267" cy="2.971" rx="2.267" ry="2.971" transform="translate(80.405 197.662)"/><ellipse class="e" cx="2.267" cy="2.971" rx="2.267" ry="2.971" transform="translate(80.405 194.033)"/><ellipse class="e" cx="2.267" cy="2.971" rx="2.267" ry="2.971" transform="translate(80.405 190.404)"/><ellipse class="e" cx="2.267" cy="2.971" rx="2.267" ry="2.971" transform="translate(80.405 186.775)"/><path class="c" d="M196.587,421.455a11.015,11.015,0,0,0,.838-1.257l-5.959-.976,6.445.046a10.9,10.9,0,0,0,.205-8.607l-8.649,4.484,7.962-5.867a10.866,10.866,0,1,0-17.947,12.152,10.856,10.856,0,0,0-1.257,1.982l7.74,4.019-8.251-2.77a10.866,10.866,0,0,0,1.752,10.2,10.866,10.866,0,1,0,17.08,0,10.862,10.862,0,0,0,0-13.434Z" transform="translate(-105.426 -256.545)"/><path class="f" d="M177.238,461.688a10.831,10.831,0,0,0,2.325,6.7,10.866,10.866,0,1,0,17.081,0C198.09,466.557,177.238,460.469,177.238,461.688Z" transform="translate(-105.482 -290.061)"/><ellipse class="e" cx="2.267" cy="2.971" rx="2.267" ry="2.971" transform="translate(104.29 218.187)"/><ellipse class="e" cx="2.267" cy="2.971" rx="2.267" ry="2.971" transform="translate(104.29 214.558)"/><ellipse class="e" cx="2.267" cy="2.971" rx="2.267" ry="2.971" transform="translate(104.29 210.929)"/><ellipse class="e" cx="2.267" cy="2.971" rx="2.267" ry="2.971" transform="translate(104.29 207.3)"/><ellipse class="e" cx="2.267" cy="2.971" rx="2.267" ry="2.971" transform="translate(104.29 203.671)"/><ellipse class="e" cx="2.267" cy="2.971" rx="2.267" ry="2.971" transform="translate(104.29 200.042)"/><ellipse class="e" cx="2.267" cy="2.971" rx="2.267" ry="2.971" transform="translate(104.29 196.413)"/><path class="c" d="M253.587,444.455a11.025,11.025,0,0,0,.838-1.257l-5.959-.976,6.445.046a10.9,10.9,0,0,0,.205-8.607l-8.649,4.484,7.962-5.867a10.866,10.866,0,1,0-17.947,12.152,10.857,10.857,0,0,0-1.257,1.982l7.74,4.019-8.251-2.77a10.866,10.866,0,0,0,1.752,10.2,10.866,10.866,0,1,0,17.08,0,10.861,10.861,0,0,0,0-13.434Z" transform="translate(-138.54 -269.907)"/><path class="f" d="M234.238,484.688a10.831,10.831,0,0,0,2.325,6.7,10.866,10.866,0,1,0,17.081,0C255.09,489.557,234.238,483.469,234.238,484.688Z" transform="translate(-138.597 -303.423)"/><ellipse class="e" cx="2.267" cy="2.971" rx="2.267" ry="2.971" transform="translate(258.077 226.986)"/><ellipse class="e" cx="2.267" cy="2.971" rx="2.267" ry="2.971" transform="translate(258.077 223.358)"/><ellipse class="e" cx="2.267" cy="2.971" rx="2.267" ry="2.971" transform="translate(258.077 219.729)"/><ellipse class="e" cx="2.267" cy="2.971" rx="2.267" ry="2.971" transform="translate(258.077 216.1)"/><ellipse class="e" cx="2.267" cy="2.971" rx="2.267" ry="2.971" transform="translate(258.077 212.471)"/><ellipse class="e" cx="2.267" cy="2.971" rx="2.267" ry="2.971" transform="translate(258.077 208.842)"/><ellipse class="e" cx="2.267" cy="2.971" rx="2.267" ry="2.971" transform="translate(258.077 205.213)"/><path class="c" d="M620.587,465.455a11.025,11.025,0,0,0,.838-1.257l-5.959-.976,6.445.046a10.9,10.9,0,0,0,.205-8.607l-8.649,4.484,7.962-5.867a10.866,10.866,0,1,0-17.947,12.152,10.859,10.859,0,0,0-1.257,1.982l7.74,4.019-8.251-2.77a10.866,10.866,0,0,0,1.752,10.2,10.866,10.866,0,1,0,17.08,0,10.862,10.862,0,0,0,0-13.434Z" transform="translate(-351.753 -282.108)"/><path class="f" d="M601.238,505.688a10.831,10.831,0,0,0,2.325,6.7,10.866,10.866,0,1,0,17.081,0C622.09,510.557,601.238,504.469,601.238,505.688Z" transform="translate(-351.81 -315.623)"/><ellipse class="e" cx="2.267" cy="2.971" rx="2.267" ry="2.971" transform="translate(281.963 241.653)"/><ellipse class="e" cx="2.267" cy="2.971" rx="2.267" ry="2.971" transform="translate(281.963 238.024)"/><ellipse class="e" cx="2.267" cy="2.971" rx="2.267" ry="2.971" transform="translate(281.963 234.395)"/><ellipse class="e" cx="2.267" cy="2.971" rx="2.267" ry="2.971" transform="translate(281.963 230.766)"/><ellipse class="e" cx="2.267" cy="2.971" rx="2.267" ry="2.971" transform="translate(281.963 227.137)"/><ellipse class="e" cx="2.267" cy="2.971" rx="2.267" ry="2.971" transform="translate(281.963 223.508)"/><ellipse class="e" cx="2.267" cy="2.971" rx="2.267" ry="2.971" transform="translate(281.963 219.88)"/><path class="c" d="M677.587,500.455a11.019,11.019,0,0,0,.838-1.257l-5.959-.976,6.445.046a10.9,10.9,0,0,0,.205-8.607l-8.649,4.484,7.962-5.867a10.866,10.866,0,1,0-17.948,12.152,10.861,10.861,0,0,0-1.257,1.982l7.74,4.019-8.251-2.77a10.865,10.865,0,0,0,1.751,10.2,10.866,10.866,0,1,0,17.08,0,10.861,10.861,0,0,0,0-13.434Z" transform="translate(-384.868 -302.441)"/><path class="f" d="M658.238,540.688a10.831,10.831,0,0,0,2.325,6.7,10.866,10.866,0,1,0,17.081,0C679.09,545.557,658.238,539.469,658.238,540.688Z" transform="translate(-384.925 -335.957)"/><ellipse class="e" cx="2.267" cy="2.971" rx="2.267" ry="2.971" transform="translate(306.267 260.51)"/><ellipse class="e" cx="2.267" cy="2.971" rx="2.267" ry="2.971" transform="translate(306.267 256.881)"/><ellipse class="e" cx="2.267" cy="2.971" rx="2.267" ry="2.971" transform="translate(306.267 253.252)"/><ellipse class="e" cx="2.267" cy="2.971" rx="2.267" ry="2.971" transform="translate(306.267 249.623)"/><ellipse class="e" cx="2.267" cy="2.971" rx="2.267" ry="2.971" transform="translate(306.267 245.994)"/><ellipse class="e" cx="2.267" cy="2.971" rx="2.267" ry="2.971" transform="translate(306.267 242.365)"/><ellipse class="e" cx="2.267" cy="2.971" rx="2.267" ry="2.971" transform="translate(306.267 238.736)"/><path class="c" d="M735.587,545.455a11,11,0,0,0,.838-1.257l-5.959-.976,6.445.046a10.9,10.9,0,0,0,.205-8.607l-8.649,4.484,7.962-5.867a10.866,10.866,0,1,0-17.947,12.152,10.85,10.85,0,0,0-1.257,1.982l7.74,4.019-8.251-2.77a10.865,10.865,0,0,0,1.752,10.2,10.866,10.866,0,1,0,17.08,0,10.862,10.862,0,0,0,0-13.434Z" transform="translate(-418.564 -328.584)"/><path class="f" d="M716.238,585.688a10.831,10.831,0,0,0,2.325,6.7,10.866,10.866,0,1,0,17.081,0C737.09,590.557,716.238,584.469,716.238,585.688Z" transform="translate(-418.62 -362.1)"/><ellipse class="e" cx="2.267" cy="2.971" rx="2.267" ry="2.971" transform="translate(325.124 227.824)"/><ellipse class="e" cx="2.267" cy="2.971" rx="2.267" ry="2.971" transform="translate(325.124 224.196)"/><ellipse class="e" cx="2.267" cy="2.971" rx="2.267" ry="2.971" transform="translate(325.124 220.567)"/><ellipse class="e" cx="2.267" cy="2.971" rx="2.267" ry="2.971" transform="translate(325.124 216.938)"/><ellipse class="e" cx="2.267" cy="2.971" rx="2.267" ry="2.971" transform="translate(325.124 213.309)"/><ellipse class="e" cx="2.267" cy="2.971" rx="2.267" ry="2.971" transform="translate(325.124 209.68)"/><ellipse class="e" cx="2.267" cy="2.971" rx="2.267" ry="2.971" transform="translate(325.124 206.051)"/><path class="c" d="M780.587,467.455a11.014,11.014,0,0,0,.838-1.257l-5.959-.976,6.445.046a10.9,10.9,0,0,0,.205-8.607l-8.649,4.484,7.962-5.867a10.866,10.866,0,1,0-17.947,12.152,10.847,10.847,0,0,0-1.257,1.982l7.74,4.019-8.251-2.77a10.866,10.866,0,0,0,1.752,10.2,10.866,10.866,0,1,0,17.08,0,10.861,10.861,0,0,0,0-13.434Z" transform="translate(-444.707 -283.27)"/><path class="f" d="M761.238,507.688a10.831,10.831,0,0,0,2.325,6.7,10.866,10.866,0,1,0,17.081,0C782.09,512.557,761.238,506.469,761.238,507.688Z" transform="translate(-444.764 -316.785)"/><ellipse class="e" cx="2.267" cy="2.971" rx="2.267" ry="2.971" transform="translate(463.826 182.149)"/><ellipse class="e" cx="2.267" cy="2.971" rx="2.267" ry="2.971" transform="translate(463.826 178.52)"/><ellipse class="e" cx="2.267" cy="2.971" rx="2.267" ry="2.971" transform="translate(463.826 174.891)"/><ellipse class="e" cx="2.267" cy="2.971" rx="2.267" ry="2.971" transform="translate(463.826 171.263)"/><ellipse class="e" cx="2.267" cy="2.971" rx="2.267" ry="2.971" transform="translate(463.826 167.634)"/><ellipse class="e" cx="2.267" cy="2.971" rx="2.267" ry="2.971" transform="translate(463.826 164.005)"/><ellipse class="e" cx="2.267" cy="2.971" rx="2.267" ry="2.971" transform="translate(463.826 160.376)"/><path class="c" d="M1114.044,387.91v1.245c0,.063-.029.231-.046.348v.143a1.746,1.746,0,0,1-.067.36,2.037,2.037,0,0,1-.042.209c-.029.155-.067.3-.109.453s-.08.306-.126.448a8.993,8.993,0,0,1-.373,1.022c-.067.168-.138.327-.218.486s-.143.289-.218.419-.122.226-.184.335-.126.21-.2.314a1.357,1.357,0,0,0-.08.13c-.029.046-.117.18-.176.264a.512.512,0,0,1-.063.084c-.072.109-.151.218-.235.323a10.953,10.953,0,0,1-1.387,1.5c-.109.1-.218.193-.331.285l-.038.029-.3.239-.159.113c-.1.075-.2.147-.3.214a10.208,10.208,0,0,1-1.5.859,3.724,3.724,0,0,1-.419.18,3.808,3.808,0,0,1-.419.159c-.151.046-.172.071-.26.1l-.151.054-.419.117-.419.113a1.087,1.087,0,0,1-.159.034l-.356.075c-.26.055-.519.1-.783.13h-.042c-.092,0-.188.025-.281.029a2.852,2.852,0,0,1-.327.025h-1.245a2.716,2.716,0,0,1-.323-.025,1.937,1.937,0,0,1-.268-.025h0c-.272-.029-.541-.063-.8-.117-.143-.025-.281-.059-.419-.092a.246.246,0,0,1-.092-.021,10.954,10.954,0,0,1-1.718-.557,9.424,9.424,0,0,1-.88-.419c-.134-.071-.272-.147-.419-.226l-.293-.18c-.193-.117-.381-.247-.566-.381-.075-.054-.151-.109-.226-.172a1.6,1.6,0,0,1-.159-.122c-.08-.067-.159-.126-.239-.2a.2.2,0,0,1-.063-.055c-.1-.084-.205-.18-.306-.268a10.791,10.791,0,0,1-.96-1.006c-.1-.117-.2-.239-.289-.356s-.134-.176-.193-.264-.1-.138-.147-.205-.13-.189-.193-.289-.155-.251-.23-.377c-.151-.251-.289-.511-.419-.775-.059-.121-.113-.239-.163-.365a6.312,6.312,0,0,1-.264-.658c-.059-.151-.109-.306-.155-.461s-.1-.335-.143-.507a.034.034,0,0,1,0-.021c-.038-.151-.075-.306-.1-.453s-.054-.26-.071-.39-.042-.235-.059-.352a.726.726,0,0,1,0-.092c-.025-.138-.038-.285-.05-.419s-.03-.327-.033-.486,0-.331,0-.5a10.83,10.83,0,0,1,2.324-6.7c-.183-.236-.359-.475-.519-.722-.054-.08-.1-.155-.151-.235s-.138-.226-.2-.339-.155-.268-.23-.419a.17.17,0,0,1-.021-.038,9.236,9.236,0,0,1-.394-.838c-.042-.1-.08-.2-.118-.293-.1-.281-.2-.561-.281-.838a9.7,9.7,0,0,1-.231-1c-.021-.1-.038-.205-.05-.306a.044.044,0,0,1,0-.025,2.367,2.367,0,0,0-.046-.3c-.029-.239-.05-.486-.063-.733v-.6a10.9,10.9,0,0,1,.574-3.482l8.251,2.77-7.74-4.027a10.964,10.964,0,0,1,1.257-1.978,10.9,10.9,0,0,1-1.458-10.979,116.924,116.924,0,0,1,13.875,13.724q3.29,3.843,6.231,7.962a10.708,10.708,0,0,1-1.534,2.686l-.033.042A10.81,10.81,0,0,1,1114.044,387.91Z" transform="translate(-637.137 -229.235)"/><path class="f" d="M1092.238,398.688a10.83,10.83,0,0,0,2.325,6.7,10.866,10.866,0,1,0,17.081,0C1113.09,403.557,1092.238,397.469,1092.238,398.688Z" transform="translate(-637.062 -253.46)"/><path class="b" d="M639.991,222.5q-7.216,2.414-14.591,4.32,6.541-3.063,13.1-5.971C639,221.395,639.48,221.948,639.991,222.5Z" transform="translate(-365.848 -150.236)"/><path class="b" d="M255.14,99.182q3.625-.176,7.3-.172h.222c-2.984,1.965-5.984,3.851-9.005,5.619-.758.419-1.517.88-2.28,1.3q-.863.49-1.726.96-6.805,3.709-13.7,7.212-5.238,2.657-10.514,5.188-6.893,3.3-13.87,6.365c-11.281,4.94-22.662,9.386-34.16,13.2q14.562-8.8,29.144-17.181,10.329-5.913,20.684-11.649l2.25-1.257q7.568-4.19,15.161-8.272l1.169-.633Z" transform="translate(-105.577 -79.452)"/><path class="b" d="M662.653,321.67q1.764,3.964,3.306,8.046c-.637.306-1.257.6-1.911.905C649.311,337.5,634.414,343.7,619.4,349.088q13.715-8.938,27.439-17.566Q654.742,326.548,662.653,321.67Z" transform="translate(-362.362 -208.809)"/><path class="e" d="M311.408,594.473c-.075-10.3-1.492-20.453-5.594-29.643a49.744,49.744,0,0,0-2.38-4.718,52.215,52.215,0,0,0-4.312-6.353,55.821,55.821,0,0,0-3.952-4.488,71.888,71.888,0,0,0-11.348-9.361,122.677,122.677,0,0,0-21.937-11.448,217.072,217.072,0,0,0-28.914-9.638q-1.752-.444-3.516-.872c-.365-.092-.729-.176-1.1-.264l-1.186-.272h0c-.679-.159-1.349-.306-2.028-.457q-3.034-.666-6.084-1.257-5.284-1.006-10.61-1.743c-7.677-1.056-15.4-1.714-23.135-2.28l-3.725-.268h0l-9.956-.7c-3.323-.251-6.642-.515-9.956-.838l-.8-.042-1.555-.155c-1.374-.143-2.753-.285-4.128-.444q-3.985-.453-7.962-1.043-4.421-.658-8.825-1.55l-.482-.1c-.779-.159-1.559-.331-2.334-.5-.461-.1-.918-.205-1.374-.314q-4.224-.993-8.381-2.246a109.023,109.023,0,0,1-11.385-4.136q-1.856-.792-3.671-1.676l-.494-.247a77.749,77.749,0,0,1-18.9-12.7l-.474-.419-1.006-.964c-.591-.574-1.169-1.165-1.739-1.756s-1.1-1.152-1.647-1.739c-3.164-3.424-6.122-7.052-9.148-10.618-2.619-3.08-5.284-6.11-8.175-8.934-.532-.52-1.073-1.022-1.622-1.521a71.083,71.083,0,0,0-7.966-6.34c-.394-.272-.792-.536-1.19-.8q-2.355-1.559-4.832-2.933c-1.613-.9-3.264-1.735-4.94-2.514q-3.352-1.559-6.818-2.8a85.558,85.558,0,0,0-11.989-3.323A86.563,86.563,0,0,0,11.954,438.3h0c-1.768.021-3.537.092-5.292.23l-.365.034c.029.088.059.176.08.268a2.725,2.725,0,0,0,.243.13c-.034.381-.063.763-.092,1.14a3.608,3.608,0,0,1-.075,1.006Q6,446.972,6,452.981a156.058,156.058,0,0,0,17.826,72.687l.163.31a157.492,157.492,0,0,0,50.134,56.344,155.883,155.883,0,0,0,55.368,23.956l3.465.708q7.182,1.391,14.6,2.1,7.543.729,15.307.733a157.681,157.681,0,0,0,21.509-1.467H310.817C311.2,603.755,311.441,599.083,311.408,594.473Z" transform="translate(-6 -276.564)"/><path class="g" d="M548.4,164.411a7.631,7.631,0,0,0-4.421.482,6.512,6.512,0,0,1-5.3,0,7.442,7.442,0,0,0-6.24.122,3.9,3.9,0,0,1-1.8.448c-2.514,0-4.635-2.548-5.07-5.908a4.8,4.8,0,0,0,1.257-1.362,7.111,7.111,0,0,1,12.688-.046,4.874,4.874,0,0,0,4.19,2.309h.063C545.805,160.442,547.54,162.056,548.4,164.411Z" transform="translate(-307.85 -111.556)"/><path class="g" d="M556.824,152.305c-.767,2.636-2.619,4.5-4.777,4.5a3.859,3.859,0,0,1-1.777-.44,7.442,7.442,0,0,0-6.185-.122,6.571,6.571,0,0,1-2.64.562,6.485,6.485,0,0,1-2.028-.331c-.109-.029-.222-.075-.331-.113s-.205-.08-.306-.126a.205.205,0,0,0-.08-.029,3.148,3.148,0,0,0-.327-.134c-.1-.042-.209-.075-.314-.113a7.409,7.409,0,0,0-5.519.394,3.884,3.884,0,0,1-1.793.453,3.518,3.518,0,0,1-1.006-.147.773.773,0,0,1-.133-.033.8.8,0,0,1-.151-.05c-1.948-.7-3.449-2.958-3.771-5.762a9.673,9.673,0,0,1-.075-1.219c0-3.985,2.3-7.212,5.154-7.212h.138a4.756,4.756,0,0,0,4.19-2.263,7.559,7.559,0,0,1,.541-.779A156.779,156.779,0,0,1,556.824,152.305Z" transform="translate(-307.873 -102.882)"/><path class="g" d="M55.711,303.916a7.391,7.391,0,0,0-1.462-.134,7.5,7.5,0,0,0-2.958.629c-.092.038-.184.08-.281.113a6.479,6.479,0,0,1-2.355.444,6.6,6.6,0,0,1-1.949-.3c-.109-.038-.222-.075-.331-.122s-.26-.1-.386-.155l-.327-.134-.314-.109a7.484,7.484,0,0,0-5.028.113q2.1-4.551,4.475-8.934a9.127,9.127,0,0,1,2.053,2.326,4.886,4.886,0,0,0,4.19,2.3H51.1a3.709,3.709,0,0,1,.717.071,4.132,4.132,0,0,1,1.257.465h0A6.374,6.374,0,0,1,55.711,303.916Z" transform="translate(-25.939 -193.506)"/><path class="g" d="M64.4,283.168c0,3.981-2.309,7.207-5.154,7.207a3.859,3.859,0,0,1-1.777-.44,7.023,7.023,0,0,0-3.289-.729,7.542,7.542,0,0,0-2.9.6c-.13.054-.256.109-.39.155a6.445,6.445,0,0,1-2.25.419,6.56,6.56,0,0,1-1.786-.248l-.242-.075c-.109-.038-.222-.075-.331-.122a3.138,3.138,0,0,1-.323-.13l-.08-.029c-.109-.05-.214-.088-.327-.134l-.314-.109-.289-.084a7.421,7.421,0,0,0-4.785.272.6.6,0,0,1,.034-.075q2.1-4.551,4.475-8.934,2.238-4.136,4.718-8.125c.5-.8,1.01-1.6,1.525-2.4a7.878,7.878,0,0,1,3.264,2.393l-1.563,2.841,2.477-1.571a4.9,4.9,0,0,0,2.426,1.84l-.6,1.085,1.387-.884a4.734,4.734,0,0,0,.838.067h.067a4.04,4.04,0,0,1,2.472.88l-1.676,3.08-.788,1.437,3.352-2.12.746-.474a3.767,3.767,0,0,1,.189.369A9.248,9.248,0,0,1,64.4,283.168Z" transform="translate(-25.852 -178.901)"/><ellipse class="h" cx="14.997" cy="19.632" rx="14.997" ry="19.632" transform="translate(399.352 210.627)"/><ellipse class="h" cx="14.997" cy="19.632" rx="14.997" ry="19.632" transform="translate(399.352 186.629)"/><ellipse class="h" cx="14.997" cy="19.632" rx="14.997" ry="19.632" transform="translate(399.352 162.635)"/><ellipse class="h" cx="14.997" cy="19.632" rx="14.997" ry="19.632" transform="translate(399.352 138.64)"/><ellipse class="h" cx="14.997" cy="19.632" rx="14.997" ry="19.632" transform="translate(399.352 114.642)"/><path class="h" d="M960.381,295.9A24.7,24.7,0,0,0,959,304.122a23.662,23.662,0,0,0,3.126,12c2.74,4.643,7.04,7.635,11.871,7.635s9.127-2.992,11.871-7.635a23.589,23.589,0,0,0,3.122-11.519,114.573,114.573,0,0,0-13.1-4.995q-4.651-1.458-9.462-2.514Z" transform="translate(-559.655 -193.837)"/><path class="h" d="M976.74,298.71q4.806,1.064,9.462,2.514a11.774,11.774,0,0,1-1.89.155,12.362,12.362,0,0,1-7.572-2.669Z" transform="translate(-569.962 -195.47)"/><ellipse class="e" cx="14.997" cy="19.632" rx="14.997" ry="19.632" transform="translate(119.853 207.275)"/><ellipse class="e" cx="14.997" cy="19.632" rx="14.997" ry="19.632" transform="translate(119.853 183.276)"/><ellipse class="e" cx="14.997" cy="19.632" rx="14.997" ry="19.632" transform="translate(119.853 159.282)"/><ellipse class="e" cx="14.997" cy="19.632" rx="14.997" ry="19.632" transform="translate(119.853 135.288)"/><ellipse class="e" cx="14.997" cy="19.632" rx="14.997" ry="19.632" transform="translate(119.853 111.29)"/><ellipse class="e" cx="14.997" cy="19.632" rx="14.997" ry="19.632" transform="translate(119.853 87.296)"/><ellipse class="e" cx="14.997" cy="19.632" rx="14.997" ry="19.632" transform="translate(119.853 63.301)"/><ellipse class="e" cx="14.997" cy="19.632" rx="14.997" ry="19.632" transform="translate(119.853 44.269)"/><path class="e" d="M300.663,103.139a16.644,16.644,0,0,0-5.519,5.791,20.308,20.308,0,0,0-1.328,2.669,24.46,24.46,0,0,0-1.8,9.261v.067a23.664,23.664,0,0,0,3.126,12c2.741,4.643,7.04,7.635,11.871,7.635s9.127-2.992,11.871-7.635a24.585,24.585,0,0,0,0-23.994c-.293-.494-.6-.972-.926-1.429a15.056,15.056,0,0,0-6.734-5.418,10.76,10.76,0,0,0-1.127-.373h0Z" transform="translate(-172.165 -81.021)"/><path class="e" d="M311.776,100.38h0q1.144-.138,2.3-.26l9.332-.7a23.532,23.532,0,0,1-1.488,5.448,21.24,21.24,0,0,1-1.354,2.732c-2.745,4.643-7.04,7.635-11.871,7.635a11.733,11.733,0,0,1-4.484-.893,15.182,15.182,0,0,1-6.466-5.318c-.323-.457-.633-.93-.922-1.425a21.37,21.37,0,0,1-1.911-4.245q3.683-.867,7.43-1.546Z" transform="translate(-173.846 -79.69)"/><ellipse class="e" cx="14.997" cy="19.632" rx="14.997" ry="19.632" transform="translate(23.474 148.19)"/><ellipse class="e" cx="14.997" cy="19.632" rx="14.997" ry="19.632" transform="translate(23.474 124.192)"/><ellipse class="e" cx="14.997" cy="19.632" rx="14.997" ry="19.632" transform="translate(23.474 100.198)"/><path class="e" d="M92,253.776a23.676,23.676,0,0,1-3.126,12c-2.745,4.643-7.04,7.639-11.871,7.639a13.269,13.269,0,0,1-10.141-5.167v-.029a18.246,18.246,0,0,1-1.71-2.443c-.256-.419-.494-.867-.721-1.32A24.158,24.158,0,0,1,62,253.776q0-1.089.088-2.15c.5-.8,1.01-1.6,1.525-2.4,1.069-1.676,2.175-3.289,3.31-4.907q3.574-5.1,7.543-9.9a11.426,11.426,0,0,1,2.514-.281c4.832,0,9.127,2.992,11.871,7.639A23.688,23.688,0,0,1,92,253.776Z" transform="translate(-38.534 -157.957)"/><path class="e" d="M98.864,208.454a23.709,23.709,0,0,1-3.126,12c-2.745,4.643-7.044,7.631-11.871,7.631a13.151,13.151,0,0,1-10.057-5.087q3.574-5.1,7.543-9.9A155.756,155.756,0,0,1,96.27,197.4,24.011,24.011,0,0,1,98.864,208.454Z" transform="translate(-45.395 -136.613)"/><path class="h" d="M281.55,708.292q7.182,1.391,14.6,2.1,7.543.738,15.307.738a157.764,157.764,0,0,0,21.532-1.474l184.506,0c.5.08,1,.159,1.5.23a116.56,116.56,0,0,0,124.828-71.237q-4.909-3.187-9.9-6.214T623.7,626.672c-.524-.281-1.052-.553-1.584-.838a138.831,138.831,0,0,0-19.967-8.427c-2.975-.976-5.976-1.823-8.993-2.514q-2.141-.5-4.3-.888-2.707-.5-5.448-.813a73.754,73.754,0,0,0-14.423-.31h0q-1.324.1-2.657.264-2.56.3-5.108.8-3.143.629-6.185,1.542c-17.474,5.192-32.61,16.8-48.282,26.475l-.6.373a238.749,238.749,0,0,1-51.76,23.739q-5.075,1.634-10.216,3.042-5.867,1.609-11.775,2.933c-.75.168-1.5.331-2.254.486q-4.521.968-9.076,1.752a242.508,242.508,0,0,1-56.084,3.151q-4.19-.251-8.4-.658-5.577-.536-11.121-1.345h0l-.763-.109c-3.2-.474-6.395-1.014-9.588-1.555-3.83-.645-7.66-1.282-11.494-1.8-1.3-.18-2.594-.339-3.893-.486a101.285,101.285,0,0,0-12.3-.679c-.65,0-1.3.025-1.953.055a56.23,56.23,0,0,0-20.466,4.446l-.36.159a38.43,38.43,0,0,0-9.273,5.829q-1.2,1.022-2.313,2.171c-5.414,5.586-8.653,12.437-11.314,19.6a154.267,154.267,0,0,0,16.343,4.484Z" transform="translate(-154.581 -377.866)"/><circle class="i" cx="0.838" cy="0.838" r="0.838" transform="translate(162.168 103.76)"/><circle class="i" cx="0.838" cy="0.838" r="0.838" transform="translate(77.103 104.598)"/><circle class="i" cx="0.838" cy="0.838" r="0.838" transform="translate(256.871 148.178)"/><circle class="i" cx="0.838" cy="0.838" r="0.838" transform="translate(320.565 118.845)"/><path class="h" d="M157.915,710.56a45.43,45.43,0,0,0,1.5-11.645c0-1.014-.038-2.02-.1-3.017a45.632,45.632,0,0,0,1.949-13.267,46.569,46.569,0,0,0-.255-4.855c0-.1-.022-.19-.03-.278a44.992,44.992,0,0,0-4.609-15.408l-18.991,5.917-7.354,2.288,5.544-3.26,17.6-10.342a45.571,45.571,0,0,0-34.252-19.523,45.837,45.837,0,0,0-3.553-4.706l-14.62,4.547L77.46,644.243l19.98-11.733,11.071-6.541A45.579,45.579,0,0,0,49.2,629.291h0l-.26.256a157.529,157.529,0,0,0,50.134,56.361,155.883,155.883,0,0,0,55.363,23.944Z" transform="translate(-30.947 -380.133)"/><path class="e" d="M467.5,828.776H432.38c4.107-6.759,10.447-11.1,17.562-11.1S463.4,822,467.5,828.776Z" transform="translate(-253.71 -496.971)"/><path class="j" d="M467.5,828.776H432.38c4.107-6.759,10.447-11.1,17.562-11.1S463.4,822,467.5,828.776Z" transform="translate(-253.71 -496.971)"/><path class="h" d="M299.3,700.7q7.182,1.391,14.6,2.1,7.543.737,15.307.737a157.765,157.765,0,0,0,21.532-1.474l81.56,0a45.65,45.65,0,0,0,4.685-20.147c0-1.014-.038-2.02-.1-3.017a45.51,45.51,0,0,0,1.961-12.169V665.65a45.39,45.39,0,0,0-4.882-20.533l-26.4,8.2,23.156-13.615a45.571,45.571,0,0,0-34.252-19.523q-.838-1.295-1.789-2.514c-.172-.226-.348-.453-.524-.675q-.6-.767-1.257-1.5l-1.064.331-36.8,11.44,30.33-17.855.721-.419a45.6,45.6,0,0,0-34.994-8.8c-.7.1-1.387.235-2.074.381a45.646,45.646,0,0,0-34.675,32.723l9.638,11.084,3.495,4.027,7.811,8.993,6.093,7.011,5.427,6.248-9.328-6.726-13.095-9.458L311.538,645.2A45.594,45.594,0,0,0,295.82,700Z" transform="translate(-172.329 -370.277)"/><path class="h" d="M669.056,668.351c2.7-4.488.147-10.258-2.9-14.511s-6.8-8.712-6.47-13.933c.473-7.509,8.657-11.574,15.215-15.257a70.753,70.753,0,0,0,13.481-9.839,19.115,19.115,0,0,0,4.241-5.158c1.454-2.875,1.576-6.219,1.643-9.445q.323-16.1-.1-32.207Z" transform="translate(-385.753 -351.917)"/><path class="k" d="M1090.818,524.13q2.368,5.355,4.647,10.748,3.985,9.445,7.689,19c1.165,3,2.326,6.143,2.1,9.357a19.025,19.025,0,0,1-1.961,6.386l-.088.193q-1.094,2.351-2.355,4.609a70.127,70.127,0,0,1-4.664,7.283q-.784,1.081-1.613,2.129a74.41,74.41,0,0,0-6.365,8.737,16.041,16.041,0,0,0-2.447,7.593,10.346,10.346,0,0,0,.549,3.57c1.676,4.957,6.847,7.647,11.289,10.421a23.924,23.924,0,0,1,5.64,4.731" transform="translate(-633.295 -326.43)"/><circle class="h" cx="11.733" cy="11.733" r="11.733" transform="translate(446.159 185.791)"/><circle class="h" cx="11.733" cy="11.733" r="11.733" transform="translate(466.897 205.347)"/><circle class="h" cx="11.733" cy="11.733" r="11.733" transform="translate(446.469 232.79)"/><circle class="h" cx="11.733" cy="11.733" r="11.733" transform="translate(452.436 261.599)"/><path class="k" d="M838.74,570.461c.788-5.175-3.771-9.537-8.209-12.311s-9.621-5.452-11.3-10.426c-2.418-7.124,3.6-13.992,8.264-19.9a70.581,70.581,0,0,0,8.72-14.247,19.03,19.03,0,0,0,1.961-6.382c.251-3.214-.909-6.353-2.1-9.357q-5.812-15.023-12.337-29.752" transform="translate(-478.136 -293.873)"/><circle class="h" cx="11.733" cy="11.733" r="11.733" transform="translate(334.275 162.325)"/><circle class="h" cx="11.733" cy="11.733" r="11.733" transform="translate(355.014 181.881)"/><circle class="h" cx="11.733" cy="11.733" r="11.733" transform="translate(334.586 209.324)"/><circle class="h" cx="11.733" cy="11.733" r="11.733" transform="translate(340.553 238.133)"/><path class="l" d="M372.107,560.213c1.224-1.84.26-4.32-.943-6.172s-2.7-3.8-2.46-5.992c.339-3.155,3.868-4.71,6.7-6.139a29.751,29.751,0,0,0,5.867-3.885,8.084,8.084,0,0,0,1.89-2.1,9.241,9.241,0,0,0,.872-3.947q.453-6.78.578-13.573" transform="translate(-216.703 -323.107)"/><circle class="e" cx="4.949" cy="4.949" r="4.949" transform="translate(163.136 190.354)"/><circle class="e" cx="4.949" cy="4.949" r="4.949" transform="translate(167.582 201.526)"/><circle class="e" cx="4.949" cy="4.949" r="4.949" transform="translate(154.885 208.381)"/><circle class="e" cx="4.949" cy="4.949" r="4.949" transform="translate(152.035 220.458)"/><path class="m" d="M812.2,206.7c-.641-3.558-.323-7.392-1.953-10.606a2.35,2.35,0,0,0-.742-.951,2.564,2.564,0,0,0-1.328-.3q-2.2-.1-4.421-.042a1.232,1.232,0,0,0-1.11.419.825.825,0,0,0-.059.126c-1.676-1.886-2.967-4.232-4.785-5.975.26-.084.52-.168.784-.239-.025-.176-.059-.352-.1-.524l-.042-.155c-.029-.122-.063-.239-.1-.356s-.042-.113-.059-.172-.071-.222-.113-.331l-.071-.172c-.042-.109-.084-.218-.134-.323s-.046-.1-.071-.159l-.159-.335c0-.046-.046-.088-.067-.134-.063-.122-.121-.239-.184-.352l-.063-.113-.214-.377-.042-.071c-.084-.142-.168-.285-.256-.419h0c-.712-1.165-1.5-2.3-2.074-3.491-1.018-2.1-1.353-4.459-2.028-6.7s-1.848-4.5-3.9-5.561c-.972-.5-2.284-.943-2.372-2.049a2.364,2.364,0,0,1,.214-1.027,13.226,13.226,0,0,1,1.018-2.057c.142-.243.3-.482.461-.712.038-.059.08-.113.122-.172.126-.176.256-.344.385-.511l.163-.205c.134-.159.268-.314.419-.465l.163-.184c.193-.205.39-.419.6-.6a1.4,1.4,0,0,0,.419-.553,1.681,1.681,0,0,0,.034-.658,7.862,7.862,0,0,1,1.881-4.878,18.369,18.369,0,0,0,2.845-4.471c.067-.193.126-.39.176-.582a1.1,1.1,0,0,1,.042-.2c.013-.067.059-.264.084-.394s.021-.155.034-.23.034-.247.046-.369a1.542,1.542,0,0,0,0-.243v-1.211a1.773,1.773,0,0,0-.034-.394c-.034-.13,0-.142-.021-.214q-.025-.226-.063-.453V146.4c-.033-.21-.071-.419-.113-.62h0a31.744,31.744,0,0,0-1.144-3.893,13.877,13.877,0,0,0-.947-2.271c.23-.042.461-.1.7-.159-.147-.268-.377-.582-.507-.884a23.156,23.156,0,0,0,3.185-6.91,30.878,30.878,0,0,0,.654-5.343,110.644,110.644,0,0,0,.247-16.2V109.9a13.329,13.329,0,0,0,.034-3.491,14.653,14.653,0,0,0-1.957-6.436,7.855,7.855,0,0,0-5.422-3.813,8.048,8.048,0,0,1-1.211,1.119,4.753,4.753,0,0,1-1.408-2.2A11.968,11.968,0,0,0,797.672,84.61c.025-.2.042-.394.055-.591v-1.71a1.838,1.838,0,0,0-.034-.419v-.142a2.206,2.206,0,0,0-.059-.419v-.092c-.025-.159-.055-.314-.084-.469a.2.2,0,0,1,0-.05c-.034-.168-.071-.331-.113-.5h0a12.155,12.155,0,0,0-1.316-3.227,12.152,12.152,0,0,0,.947-3.465c.025-.218.046-.419.059-.645V71.666a12.152,12.152,0,0,0-3.352-8.012,7.449,7.449,0,0,0,.595-1.282h0c.046-.13.088-.26.13-.394h0c.038-.126.071-.251.1-.381v-.034c.029-.117.05-.235.076-.356v-.063c.025-.138.046-.277.063-.419s.029-.293.038-.419V59.279a7.371,7.371,0,0,0-14.691-.335,7.6,7.6,0,0,0,.067,2.271,12.022,12.022,0,0,0-6.7,9.412,12.187,12.187,0,0,0-.071,2.024,12.153,12.153,0,0,0-1.886,5.6h0v.226c0,.251-.029.5-.029.758a12.1,12.1,0,0,0,4.66,9.575,8.473,8.473,0,0,0,2.355,2.481,9.686,9.686,0,0,1,.377,1.559,4.778,4.778,0,0,1-1.429,3.868c-.272.226-.574.419-.838.633a1.53,1.53,0,0,0-.867.021c-3.214,1.01-6.286,3.009-7.773,6.076a11.577,11.577,0,0,0-.771,2.166c-.059.088-.122.176-.176.268a31.259,31.259,0,0,0-4.178,10,22.685,22.685,0,0,1-1.5,5.351,5.261,5.261,0,0,0-.49,1.085,11.111,11.111,0,0,0-.075,1.756,28.711,28.711,0,0,1-.909,3.042c-.126.62-.1,1.257-.209,1.886a19.146,19.146,0,0,1-1.161,3.105c-.666,1.831-.658,3.843-1.148,5.732a1.972,1.972,0,0,1-.385.838,4.409,4.409,0,0,1-1.3.7,2.862,2.862,0,0,0-1.3,1.953,8.7,8.7,0,0,0-.042,2.426l.243,3.164c-1.182.352-2.359.712-3.537,1.073l-5.812,1.777a17.1,17.1,0,0,0-4.823,2.037,8.8,8.8,0,0,0-3.038,3.688,18.4,18.4,0,0,0-1.127,4.819,73.434,73.434,0,0,1-2.988,13.581c-.117.339-.243.679-.369,1.018h0c-.126.335-.26.666-.394,1l-.088.2c-.109.268-.218.532-.335.792-.151.335-.3.67-.465,1l13.594,4.555a4.486,4.486,0,0,0,.059.532c.469,3.352.243,6.73.679,10.057a6.542,6.542,0,0,0,.377,1.63,2.313,2.313,0,0,0-.712,1.136,6.059,6.059,0,0,0-.071,2.166q.235,2.556.461,5.125a7.853,7.853,0,0,1,.021,1.882,20.076,20.076,0,0,1-1.173,3.2,2.855,2.855,0,0,0,.557,3.147,2.212,2.212,0,0,0,2.141.193,4.983,4.983,0,0,0,1.773-1.37c2.74-3.034,3.964-7.145,6.1-10.652a20.6,20.6,0,0,0,1.454-2.539c.293-.679.478-1.4.716-2.1a20.461,20.461,0,0,1,1.173-2.736c.251-.5,1.224-1.718,1.018-2.284-.348-.96-4.081-1.814-5-2.1a2.45,2.45,0,0,0-1.827-.084,1.2,1.2,0,0,0-.247.163c-.1-1.374-.214-2.749-.318-4.119.553-.05,1.1-.122,1.647-.21-.021-.775-.038-1.555-.054-2.338l-.05-2.15c-.038-1.739-.075-3.482-.122-5.2a27.9,27.9,0,0,0-.193-3.017c-.214-1.534-.679-3.025-.838-4.563a1.726,1.726,0,0,1,.771-.352h0a5.311,5.311,0,0,1,1.32-.046h.348a11.315,11.315,0,0,0,5.506-1.517c1.71-.9,3.3-2.011,5-2.933.21-.113.419-.222.641-.331l.235-.117.4-.2.331-.159.076-.038c.993-.474,1.995-.934,2.933-1.45a2.971,2.971,0,0,0,.209.3,1.97,1.97,0,0,0,2.1.754c-1.173,2.837-2.556,5.582-2.908,8.649-.511,4.425,1.257,8.758,3,12.848l5.544,13.07c.612,1.446,1.429,3.067,2.933,3.411a4.381,4.381,0,0,0,2.782-.557,51.264,51.264,0,0,0,7.124-4.559.775.775,0,0,1,.092.071c2.1,1.655,3.415,3.972,4.865,6.181l3.889,6.382a1.856,1.856,0,0,0,.155.939,5.445,5.445,0,0,0,1.089,1.412,18.4,18.4,0,0,1,4.672,9.562,5.956,5.956,0,0,0,.771,2.611c1.043,1.446,3.26,1.354,4.827.528a3.148,3.148,0,0,0,1.207-1,3.992,3.992,0,0,0,.49-1.513,21.211,21.211,0,0,0,.465-4.01C813.587,211.637,812.644,209.2,812.2,206.7ZM789.907,89.274c.268-.18.528-.377.784-.582a12.038,12.038,0,0,1-2.514,4.274h0c-.264.289-.545.562-.838.838v-.2c-.034-.641,0-1.316.021-1.978a8.473,8.473,0,0,0,2.548-2.355ZM767.9,138.448a.4.4,0,0,1,.046-.122,2.584,2.584,0,0,1,.566.587,2.334,2.334,0,0,0,.084,2.1c.327.553.913,1.064.784,1.676s-.922.876-1.571.981c-.838.134-1.676.293-2.514.465v-.046a6.481,6.481,0,0,0-.285-2.074A5.879,5.879,0,0,0,767.9,138.448Z" transform="translate(-427.522 -52.33)"/><path class="h" d="M849.244,69.223a7.4,7.4,0,1,0-13.7-4.668,7.517,7.517,0,0,0,.067,2.238,11.884,11.884,0,0,0-6.684,9.3,12.276,12.276,0,0,0-.071,1.995,11.888,11.888,0,1,0,21.853,6.487v-.566a11.892,11.892,0,0,0-1.45-14.788Z" transform="translate(-482.929 -55.658)"/><g class="n" transform="translate(343.989 8.81)"><path d="M847.41,73.82l.1-.05a3.119,3.119,0,0,0-.054-.39v.08A2.12,2.12,0,0,0,847.41,73.82Z" transform="translate(-838.815 -73.372)"/><path d="M852.5,102.659a11.832,11.832,0,0,1-1.839,5.066v.566a11.888,11.888,0,0,1-23.722.943c-.025.318-.042.641-.042.968a11.891,11.891,0,1,0,23.783,0c0-.187,0-.376,0-.566a11.833,11.833,0,0,0,1.823-5.045,11.533,11.533,0,0,0,.042-2.4A2.22,2.22,0,0,1,852.5,102.659Z" transform="translate(-826.9 -90.109)"/><path d="M881.156,73.36a7.42,7.42,0,0,1-.976,2.829,6.017,6.017,0,0,1,.595.666,7.4,7.4,0,0,0,.39-1.63A7.506,7.506,0,0,0,881.156,73.36Z" transform="translate(-857.854 -73.36)"/></g><path class="o" d="M764.8,372.278a5.387,5.387,0,0,0,.541,1.949,2.142,2.142,0,0,0,1.576,1.152,3.207,3.207,0,0,0,1.739-.5,5.926,5.926,0,0,0,2.707-2.254,6.153,6.153,0,0,0,.369-3.4l-.708-9.064c-1.714-.05-3.436-.046-5.146.046s-1.99.49-1.756,2.145C764.59,365.641,764.359,368.985,764.8,372.278Z" transform="translate(-446.397 -231.149)"/><path class="o" d="M877.115,388.556l4.073,6.583a1.642,1.642,0,0,0,.888.838,1.413,1.413,0,0,0,.838-.151,10.683,10.683,0,0,0,3.4-2.816,6.306,6.306,0,0,0,1.63-2.514,3.193,3.193,0,0,0-.813-3,10.329,10.329,0,0,0-1.538-1.1c-3.222-2.171-4.677-6.286-7.853-8.532a1.257,1.257,0,0,0-.645-.277,1.328,1.328,0,0,0-.662.222l-4.345,2.384c-1.881,1.027-1.286,1.148.142,2.259C874.349,384.094,875.661,386.377,877.115,388.556Z" transform="translate(-508.474 -241.296)"/><path class="h" d="M772.83,376.306a2.513,2.513,0,0,0-1.827-.084,2.011,2.011,0,0,0-.951,1.5c-.113.6-.1,1.232-.268,1.823a6.161,6.161,0,0,1-1.777,2.514,2.627,2.627,0,0,1-1.119.775c-.587.151-1.211-.122-1.81,0a1.957,1.957,0,0,0-1.425,1.454,5.7,5.7,0,0,0-.071,2.133l.461,5.054a7.642,7.642,0,0,1,0,1.856,19.681,19.681,0,0,1-1.173,3.151,2.793,2.793,0,0,0,.557,3.105,2.25,2.25,0,0,0,2.146.189,5.028,5.028,0,0,0,1.777-1.349c2.745-2.992,3.968-7.048,6.1-10.5a20.533,20.533,0,0,0,1.462-2.514c.289-.675.478-1.383.712-2.1a20.811,20.811,0,0,1,1.177-2.694c.256-.5,1.224-1.676,1.022-2.254C777.5,377.437,773.756,376.6,772.83,376.306Z" transform="translate(-445.586 -240.418)"/><path class="h" d="M899.175,400.172a5.221,5.221,0,0,1-2.883,2.477,2.623,2.623,0,0,0-.972.507,1.525,1.525,0,0,0-.172,1.676,5.387,5.387,0,0,0,1.094,1.383,18.019,18.019,0,0,1,4.681,9.428,5.766,5.766,0,0,0,.775,2.573c1.043,1.425,3.264,1.333,4.832.52a3.128,3.128,0,0,0,1.211-.981,3.92,3.92,0,0,0,.49-1.492,20.673,20.673,0,0,0,.465-3.956c-.029-2.514-.972-4.915-1.425-7.388-.641-3.507-.318-7.287-1.953-10.455a2.321,2.321,0,0,0-.746-.939,2.6,2.6,0,0,0-1.328-.3c-1.475-.063-2.954-.075-4.429-.038a1.229,1.229,0,0,0-1.115.419,1.3,1.3,0,0,0,.168,1.2C898.781,396.6,900.265,398.026,899.175,400.172Z" transform="translate(-522.459 -250.347)"/><path class="h" d="M769.194,256.462a2.271,2.271,0,0,0-.532,2.875c.327.545.914,1.048.784,1.676s-.926.863-1.576.968a129.445,129.445,0,0,0-16.837,4.253l-5.82,1.752A17.414,17.414,0,0,0,740.377,270a8.7,8.7,0,0,0-3.042,3.633,18.139,18.139,0,0,0-1.131,4.748c-.872,5.95-1.986,11.955-4.643,17.348l14.117,4.609a20.3,20.3,0,0,0,4.228,1.064,15.8,15.8,0,0,0,4.119-.2c-.088-3.151-.142-6.4-.23-9.55a26.2,26.2,0,0,0-.193-2.979c-.209-1.509-.679-2.979-.838-4.5a3.511,3.511,0,0,1,2.439-.381,11.45,11.45,0,0,0,5.519-1.5c1.71-.884,3.306-1.982,5.029-2.879,2.837-1.5,6.063-2.514,8.23-4.882-1.1,4.19-3.708,7.87-4.19,12.186s1.257,8.632,3,12.668l5.556,12.885c.612,1.425,1.429,3.021,2.933,3.352a4.455,4.455,0,0,0,2.791-.549c5.108-2.4,9.219-6.893,14.666-8.335-.419-2.7-2.539-4.936-3.75-7.388-1.018-2.066-1.353-4.392-2.032-6.6s-1.848-4.433-3.9-5.481c-.972-.494-2.288-.926-2.38-2.02a2.329,2.329,0,0,1,.218-1.014,13.291,13.291,0,0,1,3.323-4.836,1.479,1.479,0,0,0,.419-.545,1.61,1.61,0,0,0,.034-.65,7.63,7.63,0,0,1,1.886-4.806A17.833,17.833,0,0,0,795.4,269c1.014-2.849,0-5.976-1-8.825a9.091,9.091,0,0,0-1.676-3.235c-1.307-1.4-3.352-1.8-5.251-2.011C781.308,254.274,774.067,252.661,769.194,256.462Z" transform="translate(-427.522 -169.51)"/><g class="n" transform="translate(304.017 86.776)"><path d="M868.909,282.8a7.616,7.616,0,0,0-1.886,4.806,1.607,1.607,0,0,1-.033.649,1.492,1.492,0,0,1-.419.549,13.258,13.258,0,0,0-3.323,4.836,2.316,2.316,0,0,0-.218,1.014c.059.683.6,1.11,1.257,1.454a13.243,13.243,0,0,1,2.3-2.808,1.48,1.48,0,0,0,.419-.545,1.61,1.61,0,0,0,.034-.65,7.629,7.629,0,0,1,1.886-4.806,17.835,17.835,0,0,0,2.849-4.408,9.193,9.193,0,0,0,.151-4.987c-.046.163-.1.327-.151.486A18.789,18.789,0,0,1,868.909,282.8Z" transform="translate(-807.918 -270.162)"/><path d="M819.84,260.447a1.186,1.186,0,0,0,.905-.784.8.8,0,0,0,0-.243c-.088.067-.176.126-.264.2A2.094,2.094,0,0,0,819.84,260.447Z" transform="translate(-782.826 -259.42)"/><path d="M749.876,349.23a20.834,20.834,0,0,1-4.228-1.064l-12.462-4.086a37.042,37.042,0,0,1-1.676,3.956l14.117,4.609a20.3,20.3,0,0,0,4.228,1.064,15.8,15.8,0,0,0,4.119-.2c-.042-1.479-.075-2.984-.109-4.484a15.505,15.505,0,0,1-3.989.2Z" transform="translate(-731.51 -308.604)"/><path d="M836.887,355.054a4.4,4.4,0,0,1-2.791.553c-1.509-.339-2.326-1.94-2.933-3.352l-5.557-12.885a36.574,36.574,0,0,1-2.908-8.8c-.033.214-.067.419-.092.637-.511,4.362,1.257,8.632,3,12.668l5.557,12.885c.612,1.425,1.429,3.021,2.933,3.352a4.454,4.454,0,0,0,2.791-.549c5.108-2.4,9.219-6.893,14.666-8.335a10.567,10.567,0,0,0-1.676-3.943C845.217,349.1,841.458,352.926,836.887,355.054Z" transform="translate(-784.381 -300.755)"/><path d="M803.356,292.27c-2.167,2.368-5.393,3.377-8.23,4.878-1.7.9-3.294,2-5.028,2.883a11.574,11.574,0,0,1-5.519,1.5,3.583,3.583,0,0,0-2.439.377c.134,1.4.541,2.761.771,4.153a7.374,7.374,0,0,1,1.676-.033,11.452,11.452,0,0,0,5.519-1.5c1.71-.884,3.306-1.982,5.028-2.879,1.869-.989,3.905-1.768,5.7-2.858A49.936,49.936,0,0,0,803.356,292.27Z" transform="translate(-760.924 -278.505)"/></g><path class="o" d="M839.948,146.407a4.632,4.632,0,0,1-1.433,3.809c-.348.289-.75.511-1.085.813a2.933,2.933,0,0,0,.419,4.446,5.526,5.526,0,0,0,3.843.277,22.58,22.58,0,0,0,5.028-1.316,8.382,8.382,0,0,0,3.981-3.26,4.895,4.895,0,0,1-2.267-4.048c-.088-1.609.356-3.449-.666-4.7s-2.808-1.211-4.3-.792c-.754.21-1.483.494-2.238.7-.381.1-1.647.1-1.894.386C838.863,143.239,839.9,145.59,839.948,146.407Z" transform="translate(-488.546 -104.062)"/><path class="j" d="M839.948,146.407a4.632,4.632,0,0,1-1.433,3.809c-.348.289-.75.511-1.085.813a2.933,2.933,0,0,0,.419,4.446,5.526,5.526,0,0,0,3.843.277,22.58,22.58,0,0,0,5.028-1.316,8.382,8.382,0,0,0,3.981-3.26,4.895,4.895,0,0,1-2.267-4.048c-.088-1.609.356-3.449-.666-4.7s-2.808-1.211-4.3-.792c-.754.21-1.483.494-2.238.7-.381.1-1.647.1-1.894.386C838.863,143.239,839.9,145.59,839.948,146.407Z" transform="translate(-488.546 -104.062)"/><circle class="o" cx="8.356" cy="8.356" r="8.356" transform="translate(347.37 25.542)"/><path class="o" d="M789.361,281.27a5.658,5.658,0,0,1-.788,1.856,8.728,8.728,0,0,0-1,5.7,6.03,6.03,0,0,0,3.516,4.438,2.394,2.394,0,0,0,2.393-.151c-1.115-1.45-1.173-3.432-1.106-5.263a1.736,1.736,0,0,1,.235-.976.612.612,0,0,1,.88-.159,7.962,7.962,0,0,0,.654,3.352c.176.419.478.838.922.838.637,0,.809-.88.784-1.517-.1-2.59-.226-5.288-1.475-7.564a9.659,9.659,0,0,1-1.257-2.544,1.508,1.508,0,0,0-.318-.893,1.123,1.123,0,0,0-.469-.218c-.721-.205-2.422-.838-3.017-.163S789.457,280.407,789.361,281.27Z" transform="translate(-459.997 -183.268)"/><path class="p" d="M800.755,180.258c-.955-.1-1.714.771-2.238,1.58a30.535,30.535,0,0,0-4.161,9.86,21.879,21.879,0,0,1-1.509,5.271,5.5,5.5,0,0,0-.49,1.073,10.789,10.789,0,0,0-.075,1.731,27.377,27.377,0,0,1-.914,3c-.121.612-.1,1.257-.205,1.861A18.432,18.432,0,0,1,790,207.693c-.666,1.806-.658,3.771-1.148,5.653a1.953,1.953,0,0,1-.39.838,4.329,4.329,0,0,1-1.3.687,2.82,2.82,0,0,0-1.3,1.928,8.467,8.467,0,0,0-.046,2.393l.385,4.94c.394-.163.654-.612.985-.888a2.739,2.739,0,0,1,2.263-.247l1.127.2a5.037,5.037,0,0,1,3.143,1.383c.587-.918.252-2.271,1.152-2.883a8.552,8.552,0,0,1,.968-.419,2.17,2.17,0,0,0,.985-1.735,6.347,6.347,0,0,0-.285-2.049,6.055,6.055,0,0,0,2.933-3.537,29.613,29.613,0,0,0,1.345-5.448,138.627,138.627,0,0,0,2.619-22.209,10.66,10.66,0,0,0-.419-3.7C802.59,181.4,802,180.4,800.755,180.258Z" transform="translate(-459.004 -126.649)"/><path class="j" d="M800.755,180.258c-.955-.1-1.714.771-2.238,1.58a30.535,30.535,0,0,0-4.161,9.86,21.879,21.879,0,0,1-1.509,5.271,5.5,5.5,0,0,0-.49,1.073,10.789,10.789,0,0,0-.075,1.731,27.377,27.377,0,0,1-.914,3c-.121.612-.1,1.257-.205,1.861A18.432,18.432,0,0,1,790,207.693c-.666,1.806-.658,3.771-1.148,5.653a1.953,1.953,0,0,1-.39.838,4.329,4.329,0,0,1-1.3.687,2.82,2.82,0,0,0-1.3,1.928,8.467,8.467,0,0,0-.046,2.393l.385,4.94c.394-.163.654-.612.985-.888a2.739,2.739,0,0,1,2.263-.247l1.127.2a5.037,5.037,0,0,1,3.143,1.383c.587-.918.252-2.271,1.152-2.883a8.552,8.552,0,0,1,.968-.419,2.17,2.17,0,0,0,.985-1.735,6.347,6.347,0,0,0-.285-2.049,6.055,6.055,0,0,0,2.933-3.537,29.613,29.613,0,0,0,1.345-5.448,138.627,138.627,0,0,0,2.619-22.209,10.66,10.66,0,0,0-.419-3.7C802.59,181.4,802,180.4,800.755,180.258Z" transform="translate(-459.004 -126.649)"/><path class="p" d="M837.621,161.19a10.51,10.51,0,0,1-5.083,2.933,31.2,31.2,0,0,1-5.867.867,3.65,3.65,0,0,1-1.819-.159,1.252,1.252,0,0,1-.758-1.488,1.65,1.65,0,0,0,.188-.557c0-.507-.758-.549-1.257-.4-3.218.993-6.286,2.963-7.786,5.984a18.2,18.2,0,0,0-1.383,5.51c-.7,4.953-1.4,10.015-.457,14.926.5,2.619,1.462,5.175,1.521,7.84.034,1.5-.218,2.984-.205,4.48a2.246,2.246,0,0,0,.394,1.475c.23.268.582.44.742.754.268.528-.092,1.257.264,1.731.419.582,1.354.163,1.953-.247a15.551,15.551,0,0,1,10.342-2.606c4.379.474,8.729,2.8,12.99,1.638a5.861,5.861,0,0,1-.566-1.01c-2.1-6.96-1.974-14.738,1.194-21.283,1.085-2.238,2.514-4.371,2.933-6.818A12.939,12.939,0,0,0,845,171.3a14.314,14.314,0,0,0-1.961-6.348A7.821,7.821,0,0,0,837.621,161.19Z" transform="translate(-474.805 -115.576)"/><path class="o" d="M822.909,287.733a7.7,7.7,0,0,0-.482,2.845,16.645,16.645,0,0,0,.138,2.778,4.412,4.412,0,0,0,.813,2.179,1.991,1.991,0,0,0,2.1.742,2.184,2.184,0,0,0,1.257-1.4,12.666,12.666,0,0,0,.394-1.9c.369-1.9,1.362-3.679,1.383-5.611a1.591,1.591,0,0,0-.109-.671,3.82,3.82,0,0,0-3-1.55C824.3,285.311,823.3,286.819,822.909,287.733Z" transform="translate(-480.307 -187.581)"/><path class="j" d="M847.481,178c-.163,1.676,1.441,2.912,2.1,4.459A7.5,7.5,0,0,1,850,184.7a107.03,107.03,0,0,1-.247,15.974,29.957,29.957,0,0,1-.645,5.271c-.9,3.637-3.1,6.784-5.267,9.843a8.52,8.52,0,0,1-1.127,1.379,8.43,8.43,0,0,1-2.1,1.257l-7.434,3.616a14.292,14.292,0,0,0-2.636,1.517,7.191,7.191,0,0,0-2.183,2.837c-1.437-.733-2.933-1.4-4.371-2.129-.339-.172-.717-.419-.771-.771-.08-.5.444-.838.8-1.215a7.465,7.465,0,0,0,1.257-2.514c1.194-2.866,4.19-4.7,5.28-7.606a11.745,11.745,0,0,1,1.282-3.315,8.238,8.238,0,0,1,1.416-1.257,23.921,23.921,0,0,0,3.135-3.214,5.447,5.447,0,0,0,1.026-1.5,7.5,7.5,0,0,0,.247-2.632c.055-2.9,1.366-5.607,2.171-8.381.754-2.623,1.068-5.38,2.062-7.924S844.837,178.691,847.481,178Z" transform="translate(-480.768 -125.342)"/><path class="p" d="M849.793,178c-.163,1.676,1.441,2.912,2.1,4.459a7.494,7.494,0,0,1,.419,2.242,107.062,107.062,0,0,1-.247,15.974,29.985,29.985,0,0,1-.654,5.263c-.9,3.637-3.105,6.784-5.267,9.843a8.518,8.518,0,0,1-1.127,1.379,8.43,8.43,0,0,1-2.1,1.257l-7.417,3.6a14.3,14.3,0,0,0-2.636,1.517,7.191,7.191,0,0,0-2.183,2.837c-1.437-.733-2.933-1.4-4.371-2.129-.339-.172-.717-.419-.771-.771-.08-.5.444-.838.8-1.215a7.465,7.465,0,0,0,1.257-2.514c1.194-2.866,4.19-4.7,5.28-7.606a11.744,11.744,0,0,1,1.282-3.315,8.242,8.242,0,0,1,1.416-1.257,24.2,24.2,0,0,0,3.139-3.214,5.414,5.414,0,0,0,1.023-1.5,7.5,7.5,0,0,0,.247-2.632c.055-2.9,1.366-5.607,2.171-8.381.754-2.623,1.068-5.38,2.062-7.924S847.149,178.691,849.793,178Z" transform="translate(-482.116 -125.342)"/><path class="h" d="M854.517,102.3a11.8,11.8,0,0,0-7.417,1.534,8.047,8.047,0,0,1,.993.075,11.888,11.888,0,0,1,4.568,22.071,11.888,11.888,0,0,0,1.856-23.68Z" transform="translate(-494.647 -81.31)"/><path class="h" d="M852.23,113.068a5.448,5.448,0,0,1,.092,4.165,4.67,4.67,0,0,0-.193-.507c-1.471-3.273-6-4.609-10.111-3.025a8.29,8.29,0,0,0-4.886,4.656c-1.048-3.16,1.081-6.793,4.987-8.31C846.233,108.446,850.75,109.8,852.23,113.068Z" transform="translate(-488.701 -85.473)"/><g class="n" transform="translate(352.437 3.672)"><path d="M858.173,113.288a7.441,7.441,0,0,0-11.113-9,8.04,8.04,0,0,1,.993.075A11.888,11.888,0,0,1,858.173,113.288Z" transform="translate(-847.06 -85.46)"/><path d="M862.773,92.584a11.893,11.893,0,0,0-7.962-10.254,11.689,11.689,0,0,0-3.151,1.257,8.043,8.043,0,0,1,.993.075A11.884,11.884,0,0,1,862.773,92.584Z" transform="translate(-849.732 -73.434)"/><path d="M869.016,67.293a7.182,7.182,0,0,0-4.794-6.193,7.069,7.069,0,0,0-1.9.8,2.905,2.905,0,0,1,.6.042A7.178,7.178,0,0,1,869.016,67.293Z" transform="translate(-855.925 -61.1)"/><path d="M872.318,123.66a11.884,11.884,0,0,1-9.219,12.571,11.871,11.871,0,0,1-2.749,2.217,11.88,11.88,0,0,0,11.959-14.779Z" transform="translate(-854.781 -97.445)"/></g><path class="g" d="M927.759,103.693a8.515,8.515,0,0,0-4.92.536,7.237,7.237,0,0,1-5.908,0,8.3,8.3,0,0,0-6.948.134,4.312,4.312,0,0,1-2,.5c-2.816,0-5.158-2.837-5.644-6.583a5.424,5.424,0,0,0,1.408-1.517,7.918,7.918,0,0,1,14.13-.046,5.448,5.448,0,0,0,4.677,2.569h.075C924.851,99.276,926.791,101.074,927.759,103.693Z" transform="translate(-526.739 -75.612)"/><path class="g" d="M936.292,77.441l-4.551,2.887L934.5,75.3a4.48,4.48,0,0,0-2.753-.985h-.071a5.029,5.029,0,0,1-.943-.067l-1.546.964.662-1.2a5.5,5.5,0,0,1-2.7-2.049l-2.77,1.768,1.743-3.172a8.053,8.053,0,0,0-6.185-3.126A8.454,8.454,0,0,0,912.86,71.8a5.3,5.3,0,0,1-4.681,2.514h-.138c-3.168,0-5.741,3.6-5.741,8.029s2.573,8.029,5.741,8.029a4.261,4.261,0,0,0,2-.5,8.3,8.3,0,0,1,6.948-.134,7.334,7.334,0,0,0,2.971.637,7.245,7.245,0,0,0,2.933-.624,8.293,8.293,0,0,1,6.885.134,4.291,4.291,0,0,0,1.978.49c3.172,0,5.741-3.6,5.741-8.029a10.205,10.205,0,0,0-1.2-4.9Z" transform="translate(-526.716 -61.105)"/><path class="g" d="M995.654,225.5a12.111,12.111,0,0,0-7.027.767,10.354,10.354,0,0,1-8.439,0,11.842,11.842,0,0,0-9.923.193,6.135,6.135,0,0,1-2.858.717c-4.023,0-7.371-4.052-8.067-9.4a7.785,7.785,0,0,0,2.011-2.171c2.359-3.8,6.013-6.24,10.115-6.24s7.71,2.409,10.057,6.172a7.765,7.765,0,0,0,6.7,3.671h.1C991.51,219.192,994.284,221.761,995.654,225.5Z" transform="translate(-559.854 -143.567)"/><path class="g" d="M1007.861,187.992l-6.5,4.128,3.947-7.182a6.453,6.453,0,0,0-3.935-1.4h-.1a8.029,8.029,0,0,1-1.349-.1l-2.2,1.4.947-1.718a7.828,7.828,0,0,1-3.855-2.933l-3.947,2.514,2.514-4.53a11.552,11.552,0,0,0-8.838-4.471c-4.1,0-7.756,2.443-10.116,6.244a7.543,7.543,0,0,1-6.7,3.6h-.222c-4.53,0-8.2,5.137-8.2,11.469s3.671,11.469,8.2,11.469a6.168,6.168,0,0,0,2.858-.712,11.826,11.826,0,0,1,9.923-.2,10.354,10.354,0,0,0,8.439.021,11.855,11.855,0,0,1,9.839.189,6.139,6.139,0,0,0,2.824.7c4.53,0,8.2-5.133,8.2-11.469A14.566,14.566,0,0,0,1007.861,187.992Z" transform="translate(-559.825 -122.838)"/><path class="g" d="M698.62,176.693a8.515,8.515,0,0,1,4.92.536,7.224,7.224,0,0,0,5.9,0,8.3,8.3,0,0,1,6.948.134,4.325,4.325,0,0,0,2,.5c2.816,0,5.163-2.837,5.649-6.583a5.358,5.358,0,0,1-1.408-1.517,7.918,7.918,0,0,0-14.13-.046,5.448,5.448,0,0,1-4.693,2.556h-.071C701.507,172.276,699.563,174.074,698.62,176.693Z" transform="translate(-408.385 -118.022)"/><path class="g" d="M676.478,150.435l4.551,2.887-2.766-5.029a4.488,4.488,0,0,1,2.753-.985h.075a5.029,5.029,0,0,0,.943-.067l1.542.976-.662-1.2a5.51,5.51,0,0,0,2.7-2.049l2.762,1.752-1.747-3.172a8.062,8.062,0,0,1,6.189-3.126,8.453,8.453,0,0,1,7.082,4.371,5.293,5.293,0,0,0,4.681,2.514h.151c3.172,0,5.741,3.6,5.741,8.029s-2.569,8.029-5.741,8.029a4.287,4.287,0,0,1-2-.5,8.3,8.3,0,0,0-6.948-.134,7.312,7.312,0,0,1-2.967.637,7.216,7.216,0,0,1-2.933-.624,8.3,8.3,0,0,0-6.889.134,4.278,4.278,0,0,1-1.978.49c-3.168,0-5.741-3.6-5.741-8.029A10.2,10.2,0,0,1,676.478,150.435Z" transform="translate(-394.825 -103.51)"/></g></svg>